<?xml version="1.0" encoding="utf-8"?>
<!-- Generator: Adobe Illustrator 21.0.0, SVG Export Plug-In . SVG Version: 6.00 Build 0)  -->
<svg version="1.1" id="Ebene_1" xmlns="http://www.w3.org/2000/svg" xmlns:xlink="http://www.w3.org/1999/xlink" x="0px" y="0px"
	 width="240.9px" height="155.9px" viewBox="0 0 240.9 155.9" style="enable-background:new 0 0 240.9 155.9;" xml:space="preserve"
	>
<style type="text/css">
	.st0{opacity:0.5;}
	.st1{opacity:0.5;clip-path:url(#SVGID_2_);enable-background:new    ;}
	.st2{clip-path:url(#SVGID_4_);}
	.st3{opacity:0.8;}
	.st4{clip-path:url(#SVGID_21_);}
	.st5{clip-path:url(#SVGID_22_);}
	.st6{clip-path:url(#SVGID_23_);}
	.st7{clip-path:url(#SVGID_24_);}
	.st8{clip-path:url(#SVGID_25_);}
	.st9{clip-path:url(#SVGID_26_);}
	.st10{clip-path:url(#SVGID_27_);}
	.st11{clip-path:url(#SVGID_28_);}
	.st12{clip-path:url(#SVGID_29_);}
	.st13{clip-path:url(#SVGID_30_);}
	.st14{clip-path:url(#SVGID_31_);}
	.st15{clip-path:url(#SVGID_32_);}
	.st16{clip-path:url(#SVGID_33_);}
	.st17{clip-path:url(#SVGID_34_);}
	.st18{clip-path:url(#SVGID_35_);}
	.st19{clip-path:url(#SVGID_36_);fill:#020203;}
	.st20{clip-path:url(#SVGID_36_);fill:none;stroke:#000000;stroke-miterlimit:10;}
</style>
<g class="st0">
	<g>
		<defs>
			<rect id="SVGID_1_" width="240.9" height="155.9"/>
		</defs>
		<clipPath id="SVGID_2_">
			<use xlink:href="#SVGID_1_"  style="overflow:visible;"/>
		</clipPath>
		<g class="st1">
			<g>
				<defs>
					<rect id="SVGID_3_" width="240.9" height="155.9"/>
				</defs>
				<clipPath id="SVGID_4_">
					<use xlink:href="#SVGID_3_"  style="overflow:visible;"/>
				</clipPath>
				<g class="st2">
					<g class="st3">
						<g>
							<defs>
								<rect id="SVGID_5_" x="-105.9" y="-136.4" width="431.9" height="429.7"/>
							</defs>
							<defs>
								<rect id="SVGID_6_" x="-105.9" y="-136.4" width="431.9" height="429.7"/>
							</defs>
							<defs>
								<rect id="SVGID_7_" x="-105.9" y="-136.4" width="431.9" height="429.7"/>
							</defs>
							<defs>
								<rect id="SVGID_8_" x="-105.9" y="-136.4" width="431.9" height="429.7"/>
							</defs>
							<defs>
								<rect id="SVGID_9_" x="-105.9" y="-136.4" width="431.9" height="429.7"/>
							</defs>
							<defs>
								<rect id="SVGID_10_" x="-105.9" y="-136.4" width="431.9" height="429.7"/>
							</defs>
							<defs>
								<rect id="SVGID_11_" x="-105.9" y="-136.4" width="431.9" height="429.7"/>
							</defs>
							<defs>
								<rect id="SVGID_12_" x="-105.9" y="-136.4" width="431.9" height="429.7"/>
							</defs>
							<defs>
								<rect id="SVGID_13_" x="-105.9" y="-136.4" width="431.9" height="429.7"/>
							</defs>
							<defs>
								<rect id="SVGID_14_" x="-105.9" y="-136.4" width="431.9" height="429.7"/>
							</defs>
							<defs>
								<rect id="SVGID_15_" x="-105.9" y="-136.4" width="431.9" height="429.7"/>
							</defs>
							<defs>
								<rect id="SVGID_16_" x="-105.9" y="-136.4" width="431.9" height="429.7"/>
							</defs>
							<defs>
								<rect id="SVGID_17_" x="-105.9" y="-136.4" width="431.9" height="429.7"/>
							</defs>
							<defs>
								<rect id="SVGID_18_" x="-105.9" y="-136.4" width="431.9" height="429.7"/>
							</defs>
							<defs>
								<rect id="SVGID_19_" x="-105.9" y="-136.4" width="431.9" height="429.7"/>
							</defs>
							<defs>
								<rect id="SVGID_20_" x="-105.9" y="-136.4" width="431.9" height="429.7"/>
							</defs>
							<clipPath id="SVGID_21_">
								<use xlink:href="#SVGID_5_"  style="overflow:visible;"/>
							</clipPath>
							<clipPath id="SVGID_22_" class="st4">
								<use xlink:href="#SVGID_6_"  style="overflow:visible;"/>
							</clipPath>
							<clipPath id="SVGID_23_" class="st5">
								<use xlink:href="#SVGID_7_"  style="overflow:visible;"/>
							</clipPath>
							<clipPath id="SVGID_24_" class="st6">
								<use xlink:href="#SVGID_8_"  style="overflow:visible;"/>
							</clipPath>
							<clipPath id="SVGID_25_" class="st7">
								<use xlink:href="#SVGID_9_"  style="overflow:visible;"/>
							</clipPath>
							<clipPath id="SVGID_26_" class="st8">
								<use xlink:href="#SVGID_10_"  style="overflow:visible;"/>
							</clipPath>
							<clipPath id="SVGID_27_" class="st9">
								<use xlink:href="#SVGID_11_"  style="overflow:visible;"/>
							</clipPath>
							<clipPath id="SVGID_28_" class="st10">
								<use xlink:href="#SVGID_12_"  style="overflow:visible;"/>
							</clipPath>
							<clipPath id="SVGID_29_" class="st11">
								<use xlink:href="#SVGID_13_"  style="overflow:visible;"/>
							</clipPath>
							<clipPath id="SVGID_30_" class="st12">
								<use xlink:href="#SVGID_14_"  style="overflow:visible;"/>
							</clipPath>
							<clipPath id="SVGID_31_" class="st13">
								<use xlink:href="#SVGID_15_"  style="overflow:visible;"/>
							</clipPath>
							<clipPath id="SVGID_32_" class="st14">
								<use xlink:href="#SVGID_16_"  style="overflow:visible;"/>
							</clipPath>
							<clipPath id="SVGID_33_" class="st15">
								<use xlink:href="#SVGID_17_"  style="overflow:visible;"/>
							</clipPath>
							<clipPath id="SVGID_34_" class="st16">
								<use xlink:href="#SVGID_18_"  style="overflow:visible;"/>
							</clipPath>
							<clipPath id="SVGID_35_" class="st17">
								<use xlink:href="#SVGID_19_"  style="overflow:visible;"/>
							</clipPath>
							<clipPath id="SVGID_36_" class="st18">
								<use xlink:href="#SVGID_20_"  style="overflow:visible;"/>
							</clipPath>
							<polyline class="st19" points="32.3,148.6 36.2,144.7 23.1,131.6 51.6,129.3 57.9,123 10.2,126.4 							"/>
							<polyline class="st19" points="5.7,121.9 29.7,120.3 31.8,104.8 46.1,119.2 53.2,118.3 26.7,91.9 24,114.7 -0.1,116.1 
															"/>
							<path class="st20" d="M62.2,74.3l14.4,14.4l7.1-0.8L57.2,61.4l-2.7,22.8l-24.2,1.4l5.8,5.8L60,89.8L62.2,74.3z M88.4,92.5
								l-47.7,3.4l22.2,22.2l3.9-3.9l-13.1-13.1l28.5-2.3L88.4,92.5z"/>
							<polyline class="st19" points="93.3,87.6 97.2,83.7 84.1,70.6 112.6,68.3 118.9,62 71.2,65.4 							"/>
							<polyline class="st19" points="66.7,60.9 90.6,59.4 92.7,43.8 107.1,58.2 114.2,57.3 87.7,30.9 85,53.7 60.9,55.1 							"/>
							<polyline class="st19" points="100.5,155.7 104.3,151.8 91.2,138.7 119.7,136.5 126,130.2 78.3,133.5 							"/>
							<polyline class="st19" points="131,125.2 134.8,121.3 121.7,108.2 150.2,106 156.5,99.7 108.8,103 							"/>
							<polyline class="st19" points="104.3,98.6 128.3,97 130.4,81.4 144.7,95.8 151.8,95 125.3,68.5 122.6,91.4 98.5,92.7 							
								"/>
							<polyline class="st19" points="25.7,80.9 29.6,77.1 16.5,64 44.9,61.7 51.2,55.4 3.5,58.8 							"/>
							<polyline class="st19" points="56.2,50.4 60.1,46.6 47,33.5 75.4,31.2 81.7,24.9 34,28.3 							"/>
							<polyline class="st19" points="124.7,56.2 128.6,52.3 115.5,39.2 144,36.9 150.3,30.6 102.6,34 							"/>
							<polyline class="st19" points="162.4,93.8 166.2,89.9 153.1,76.8 181.6,74.6 187.9,68.3 140.2,71.6 							"/>
							<path class="st20" d="M192.3,19.5l14.4,14.4l7.1-0.8L187.2,6.6l-2.7,22.8l-24.2,1.4l5.8,5.8L190,35L192.3,19.5z M218.4,37.8
								l-47.7,3.4l22.2,22.2l3.9-3.9l-13.1-13.1l28.5-2.3L218.4,37.8z"/>
							<polyline class="st19" points="142.4,136.2 166.3,134.6 168.4,119.1 182.8,133.4 189.8,132.6 163.4,106.1 160.7,129 
								136.5,130.4 							"/>
							<polyline class="st19" points="200.4,131.4 204.3,127.6 191.2,114.5 219.6,112.2 225.9,105.9 178.2,109.2 							"/>
							<polyline class="st19" points="173.8,104.8 197.7,103.2 199.8,87.7 214.2,102 221.2,101.2 194.8,74.7 192.1,97.6 167.9,98.9 
															"/>
						</g>
					</g>
				</g>
			</g>
		</g>
	</g>
</g>
</svg>
